<svg xmlns="http://www.w3.org/2000/svg" xmlns:xlink="http://www.w3.org/1999/xlink" viewBox="0 0 254 254"><defs><style>.cls-1{fill:url(#未命名漸層_13);}.cls-2,.cls-3{fill:#fff;}.cls-3{font-size:36.18px;font-family:Vortice-Concept, Vortice;letter-spacing:-0.06em;}</style><linearGradient id="未命名漸層_13" x1="-45.22" y1="-52.72" x2="310.14" y2="318.12" gradientUnits="userSpaceOnUse"><stop offset="0.19" stop-color="#1f9ebf"/><stop offset="0.83" stop-color="#4bb8a5"/></linearGradient></defs><g id="圖層_2" data-name="圖層 2"><g id="圖層_1-2" data-name="圖層 1"><rect class="cls-1" width="254" height="254" rx="58.77"/><path class="cls-2" d="M76.15,141a15.68,15.68,0,1,1,15.68-15.67A15.7,15.7,0,0,1,76.15,141Zm0-24.41a8.74,8.74,0,1,0,8.74,8.74A8.74,8.74,0,0,0,76.15,116.61Z"/><path class="cls-2" d="M59.32,125.35V109.77H52.38v2.57a15.67,15.67,0,1,0,0,26,8.74,8.74,0,0,1-17,1.8l-6.62,2.08a15.68,15.68,0,0,0,30.63-4.72H53.46A15.64,15.64,0,0,0,59.32,125.35Zm-15.68,8.73a8.74,8.74,0,1,1,8.74-8.73A8.75,8.75,0,0,1,43.64,134.08Z"/><path class="cls-2" d="M137.68,109.67a15.56,15.56,0,0,0-8.74,2.67v-2.57H122v42.3h6.94V138.36a15.68,15.68,0,1,0,8.74-28.69Zm0,24.41a8.74,8.74,0,1,1,8.74-8.73A8.75,8.75,0,0,1,137.68,134.08Z"/><rect class="cls-2" x="155.06" y="98.03" width="6.94" height="41.99"/><path class="cls-2" d="M107.13,142.05c-8.35,0-14.17-4.83-14.53-10.61h8.18c.3,2.36,2.93,4.44,6.29,4.44s5.45-1.26,5.53-2.73c.26-4.89-19-3.49-19-14.17,0-5.17,5.13-9.64,13.35-9.64,8.05,0,12.62,4.39,13.1,10.56H112.6c-.24-2.41-2.57-4.33-5.88-4.33-3.12,0-5.52,1.5-5.52,3.29,0,5.67,18.86,2.89,18.86,14.29C120.06,137.57,115.23,142.05,107.13,142.05Z"/><path class="cls-2" d="M85.3,85l-7.9-4.6A45.61,45.61,0,0,1,92.92,64.54l4.77,7.79A36.34,36.34,0,0,0,85.3,85Z"/><path class="cls-2" d="M70.44,92l-8.88-2.15A56.94,56.94,0,0,1,82,58.42l5.59,7.22A47.77,47.77,0,0,0,70.44,92Z"/><path class="cls-2" d="M60.68,85.12,52,82.31A68.37,68.37,0,0,1,70.31,53.55l6.24,6.68A59.09,59.09,0,0,0,60.68,85.12Z"/><path class="cls-2" d="M46.72,98.41l-9.11-.61A79.29,79.29,0,0,1,48.3,63.19l7.88,4.62A70.17,70.17,0,0,0,46.72,98.41Z"/><path class="cls-2" d="M37,86.77,28,84.93a90.19,90.19,0,0,1,7.64-22L43.82,67A80.44,80.44,0,0,0,37,86.77Z"/><text class="cls-3" transform="translate(24.94 190.06) scale(1.05 1)">mobile</text></g></g></svg>