<svg xmlns="http://www.w3.org/2000/svg" viewBox="0 0 815.03 102.76"><defs><style>.cls-1{fill:#3e3a39;}.cls-2{fill:#313333;}.cls-3{fill:none;stroke:#231815;stroke-miterlimit:10;}</style></defs><g id="圖層_2" data-name="圖層 2"><g id="圖層_1-2" data-name="圖層 1"><path class="cls-1" d="M227.37,80a29.19,29.19,0,1,1,29.18-29.19A29.22,29.22,0,0,1,227.37,80Zm0-45.45a16.27,16.27,0,1,0,16.26,16.26A16.29,16.29,0,0,0,227.37,34.59Z"/><path class="cls-1" d="M196,50.85v-29H183.11v4.78a29.19,29.19,0,1,0-.08,48.5,16.27,16.27,0,0,1-31.7,3.35L139,82.36a29.19,29.19,0,0,0,57-8.78h-10.9A29.14,29.14,0,0,0,196,50.85ZM166.84,67.12a16.27,16.27,0,1,1,16.27-16.27A16.29,16.29,0,0,1,166.84,67.12Z"/><path class="cls-1" d="M341.9,21.67a29,29,0,0,0-16.27,5V21.85H312.71v78.74h12.92V75.07a29.18,29.18,0,1,0,16.27-53.4Zm0,45.45a16.27,16.27,0,1,1,16.26-16.27A16.29,16.29,0,0,1,341.9,67.12Z"/><rect class="cls-1" x="374.26" width="12.92" height="78.17"/><path class="cls-1" d="M285,82c-15.53,0-26.37-9-27-19.76h15.22c.56,4.38,5.45,8.27,11.71,8.27s10.14-2.35,10.29-5.09c.48-9.09-35.44-6.49-35.34-26.38.05-9.61,9.54-17.94,24.85-17.94,15,0,23.49,8.17,24.39,19.66h-13.9c-.45-4.49-4.79-8.06-10.93-8.06-5.81,0-10.29,2.78-10.29,6.13,0,10.55,35.12,5.38,35.12,26.59C309.11,73.6,300.12,82,285,82Z"/><path class="cls-1" d="M106.63,76.29,92,67.72a85,85,0,0,1,28.87-29.54l8.89,14.5A67.85,67.85,0,0,0,106.63,76.29Z"/><path class="cls-1" d="M79,89.32l-16.52-4a105.94,105.94,0,0,1,38-58.52l10.41,13.45A88.91,88.91,0,0,0,79,89.32Z"/><path class="cls-1" d="M60.82,76.5,44.64,71.26A126.93,126.93,0,0,1,78.75,17.73l11.6,12.43A109.83,109.83,0,0,0,60.82,76.5Z"/><path class="cls-1" d="M34.83,101.24l-17-1.15A147.44,147.44,0,0,1,37.76,35.67l14.67,8.61A130.46,130.46,0,0,0,34.83,101.24Z"/><path class="cls-1" d="M16.65,79.57,0,76.14a167.65,167.65,0,0,1,14.21-41l15.21,7.6A149.93,149.93,0,0,0,16.65,79.57Z"/><path class="cls-2" d="M495.62,27.15h3.32V21.92h5.9v5.23h4.29v4.07h-4.29v7.47c0,1.51.33,2.2,2.12,2.2a7.74,7.74,0,0,0,1.59-.11v3.84a14.67,14.67,0,0,1-3.72.4c-4.56,0-5.89-1.89-5.89-5.35V31.22h-3.32Z"/><path class="cls-2" d="M514.94,37.38c.15,2.14,1.78,3.81,4.55,3.81,2.22,0,3.26-.65,3.94-1.73h5.86c-1.12,3.14-3.91,5.9-9.86,5.9-7.59,0-10.32-4.82-10.32-9.32,0-5,3.5-9.37,10.28-9.37,7.21,0,10.12,4.75,10.12,9.37,0,.44,0,.77,0,1.34Zm8.63-3.44c-.12-1.35-.88-3.35-4.19-3.35-3.08,0-4.19,1.61-4.37,3.35Z"/><path class="cls-2" d="M550.4,38.89c-.75,3.35-3.76,6.47-9.84,6.47-7.14,0-10.29-4.3-10.29-9.38,0-4.8,3.57-9.31,10.29-9.31,7.35,0,9.49,4.58,9.71,6.54h-5.86c-.35-1-1.25-2.35-3.8-2.35-3,0-4.37,2.15-4.37,5.08s1.26,5.19,4.35,5.19a3.84,3.84,0,0,0,3.95-2.24Z"/><path class="cls-2" d="M557.72,19.33v10c.7-1,2.3-2.69,6.15-2.69,4.57,0,7.27,2.49,7.27,7.57V44.88h-5.93v-10c0-2.27-.63-3.84-3.3-3.84s-4.16,2-4.16,5.34v8.52h-5.86V19.33Z"/><path class="cls-2" d="M585.23,33.81v4.65h-12V33.81Z"/><path class="cls-2" d="M606,39.91c0,2.3.1,4.59.14,5h-5.53a10.65,10.65,0,0,1-.22-2c-1,1.53-3.13,2.48-6.61,2.48-5.08,0-7.12-3-7.12-5.79,0-4.66,4.26-6,9.72-6h3.89v-.56c0-1.43-.66-2.59-3.38-2.59-2.53,0-3.09.9-3.33,1.92h-5.86c.16-2.19,1.77-5.72,9.1-5.72,8,0,9.2,3.62,9.2,6.59Zm-5.73-2.74c-.43,0-1.71,0-3.78,0-3,0-4.16.75-4.16,2.15,0,1.15,1,2.08,3.11,2.08,3.21,0,4.83-1.4,4.83-3.93Z"/><path class="cls-2" d="M608.82,19.33h5.86v4.48h-5.86Zm0,7.82h5.86V44.88h-5.86Z"/><path class="cls-2" d="M637.46,19.33V39.89c0,1.65,0,3.34,0,5h-5.79c-.07-.53-.11-1.36-.14-2.05-1,1.36-2.33,2.53-6.17,2.53-5.15,0-9-3.66-9-9.2A9.47,9.47,0,0,1,626,26.67c3.61,0,5.09,1.17,5.62,1.82V19.33ZM622.43,36c0,2.8,1.69,4.94,4.69,4.94s4.59-1.91,4.59-5-1.25-5-4.57-5S622.43,33.42,622.43,36Z"/><path class="cls-2" d="M648.14,31.72c0-1.53,0-3,0-4.57h5.61a19.29,19.29,0,0,1,.16,2.09,6.72,6.72,0,0,1,5.65-2.57c3.27,0,4.86,1.37,5.59,2.9a7.13,7.13,0,0,1,6.24-2.9c3.88,0,6.94,2.21,6.94,7.5V44.88h-5.77V34.3c0-1.54-.56-3.4-3-3.4-2.11,0-3.39,1.26-3.39,4.19v9.79h-5.79V34.28c0-1.76-.67-3.38-3-3.38s-3.41,1.64-3.41,4.2v9.78h-5.8Z"/><path class="cls-2" d="M685.84,37.38c.15,2.14,1.78,3.81,4.55,3.81,2.22,0,3.26-.65,3.94-1.73h5.86c-1.12,3.14-3.91,5.9-9.86,5.9C682.74,45.36,680,40.54,680,36c0-5,3.51-9.37,10.28-9.37,7.21,0,10.12,4.75,10.12,9.37,0,.44,0,.77,0,1.34Zm8.63-3.44c-.12-1.35-.88-3.35-4.19-3.35-3.08,0-4.19,1.61-4.37,3.35Z"/><path class="cls-2" d="M722.23,19.33V39.89c0,1.65,0,3.34,0,5h-5.79c-.07-.53-.11-1.36-.14-2.05-1,1.36-2.33,2.53-6.17,2.53-5.15,0-9-3.66-9-9.2a9.47,9.47,0,0,1,9.55-9.49c3.61,0,5.09,1.17,5.62,1.82V19.33ZM707.2,36c0,2.8,1.69,4.94,4.69,4.94s4.59-1.91,4.59-5-1.25-5-4.57-5S707.2,33.42,707.2,36Z"/><path class="cls-2" d="M725.08,19.33H731v4.48h-5.87Zm0,7.82H731V44.88h-5.87Z"/><path class="cls-2" d="M752.8,38.89c-.75,3.35-3.77,6.47-9.85,6.47-7.13,0-10.28-4.3-10.28-9.38,0-4.8,3.57-9.31,10.29-9.31,7.34,0,9.49,4.58,9.71,6.54h-5.86c-.35-1-1.25-2.35-3.8-2.35-3,0-4.38,2.15-4.38,5.08s1.27,5.19,4.35,5.19c2.12,0,3.2-.74,3.95-2.24Z"/><path class="cls-2" d="M772.88,39.91c0,2.3.11,4.59.15,5h-5.54a11.57,11.57,0,0,1-.21-2c-1,1.53-3.13,2.48-6.62,2.48-5.07,0-7.11-3-7.11-5.79,0-4.66,4.26-6,9.72-6h3.88v-.56c0-1.43-.65-2.59-3.37-2.59-2.53,0-3.09.9-3.33,1.92h-5.86c.15-2.19,1.77-5.72,9.1-5.72,8,0,9.19,3.62,9.19,6.59Zm-5.73-2.74c-.42,0-1.7,0-3.78,0-3,0-4.15.75-4.15,2.15,0,1.15,1,2.08,3.1,2.08,3.22,0,4.83-1.4,4.83-3.93Z"/><path class="cls-2" d="M775.74,44.88V19.33h5.86V44.88Z"/><path class="cls-2" d="M501.92,72.65c.47,1.27,1.71,2.1,4.21,2.1s3.2-.74,3.2-1.58-.81-1.48-4.52-2c-7.07-1-8.05-3.44-8.05-5.61,0-2.68,2.14-5.7,8.57-5.7s8.83,3,9.1,5.49h-5.77c-.26-.83-.92-1.78-3.54-1.78-2.22,0-2.61.81-2.61,1.43s.59,1.19,4,1.68c7.53,1.08,8.52,3.5,8.52,6,0,3.24-2.57,5.91-9.33,5.91-5.07,0-9-2-9.63-5.93Z"/><path class="cls-2" d="M535.24,72.94c0,1.71,0,3.45,0,5.16h-5.72c-.07-.48-.08-1.29-.11-2.07-.93,1.39-2.34,2.55-6.23,2.55s-6.91-2.16-6.91-7.38V60.37h5.86v9.9c0,2.36.9,4,3.34,4,2.85,0,3.91-1.6,3.91-5.66V60.37h5.86Z"/><path class="cls-2" d="M543.9,76.37v9.2H538V64.72c0-1.44,0-2.91,0-4.35h5.76a18.14,18.14,0,0,1,.14,2.28c1.05-1.45,2.93-2.76,6.46-2.76a8.72,8.72,0,0,1,8.7,9,9.3,9.3,0,0,1-9.45,9.7C546.56,78.58,544.78,77.46,543.9,76.37ZM553,69.19c0-2.61-1.54-5-4.57-5-3.4,0-4.7,2.09-4.7,5s1.59,4.9,4.63,4.9S553,72.15,553,69.19Z"/><path class="cls-2" d="M566.68,76.37v9.2h-5.86V64.72c0-1.44,0-2.91,0-4.35h5.76a18.14,18.14,0,0,1,.14,2.28c1.05-1.45,2.93-2.76,6.46-2.76a8.72,8.72,0,0,1,8.7,9,9.3,9.3,0,0,1-9.45,9.7C569.33,78.58,567.56,77.46,566.68,76.37Zm9.14-7.18c0-2.61-1.54-5-4.57-5-3.4,0-4.7,2.09-4.7,5s1.59,4.9,4.63,4.9S575.82,72.15,575.82,69.19Z"/><path class="cls-2" d="M603.76,69.22c0,5.46-3.94,9.36-10.82,9.36s-10.44-4.44-10.44-9.36,3.66-9.33,10.67-9.33C600.4,59.89,603.76,64.82,603.76,69.22Zm-15.29,0c0,2.76,1.6,5.13,4.66,5.13s4.6-2.33,4.6-5-1.39-5.19-4.64-5.19S588.47,66.49,588.47,69.22Z"/><path class="cls-2" d="M605.52,65.18c0-1.6,0-3.21,0-4.81h5.73c.1.62.17,2.59.17,3.54,1-2.33,3.3-4.08,7.15-4V65c-4.2-.07-7.15,1.54-7.15,6.6V78.1h-5.86Z"/><path class="cls-2" d="M618.77,60.37h3.33V55.14H628v5.23h4.29v4.07H628v7.47c0,1.51.33,2.2,2.13,2.2A7.64,7.64,0,0,0,631.7,74v3.85a15.14,15.14,0,0,1-3.71.39c-4.57,0-5.89-1.89-5.89-5.35V64.44h-3.33Z"/><path class="cls-2" d="M633.64,52.55h5.86V57h-5.86Zm0,7.82h5.86V78.1h-5.86Z"/><path class="cls-2" d="M646.53,60.37c2.54,6.84,4.12,10.68,4.77,12.87h.06c.68-2.21,2-5.64,4.73-12.87h6L654.39,78.1h-6.54l-7.62-17.73Z"/><path class="cls-2" d="M667,70.6c.15,2.14,1.77,3.81,4.55,3.81,2.21,0,3.26-.64,3.93-1.73h5.86c-1.11,3.14-3.9,5.9-9.85,5.9-7.59,0-10.33-4.82-10.33-9.32,0-5,3.51-9.37,10.28-9.37,7.22,0,10.13,4.75,10.13,9.37,0,.45,0,.77,0,1.34Zm8.62-3.44c-.11-1.35-.88-3.35-4.18-3.35-3.08,0-4.2,1.61-4.37,3.35Z"/><path class="cls-2" d="M695.46,72.65c.47,1.27,1.71,2.1,4.21,2.1s3.19-.74,3.19-1.58-.81-1.48-4.51-2c-7.07-1-8.05-3.44-8.05-5.61,0-2.68,2.13-5.7,8.56-5.7s8.84,3,9.11,5.49H702.2c-.26-.83-.92-1.78-3.55-1.78-2.21,0-2.61.81-2.61,1.43s.6,1.19,4.05,1.68c7.53,1.08,8.52,3.5,8.52,6,0,3.24-2.57,5.91-9.33,5.91-5.07,0-9-2-9.63-5.93Z"/><path class="cls-2" d="M714.72,70.6c.15,2.14,1.78,3.81,4.55,3.81,2.22,0,3.26-.64,3.93-1.73h5.87c-1.12,3.14-3.91,5.9-9.86,5.9-7.59,0-10.33-4.82-10.33-9.32,0-5,3.51-9.37,10.29-9.37,7.21,0,10.12,4.75,10.12,9.37,0,.45,0,.77,0,1.34Zm8.62-3.44c-.11-1.35-.88-3.35-4.18-3.35-3.08,0-4.2,1.61-4.37,3.35Z"/><path class="cls-2" d="M730.93,65.18c0-1.6,0-3.21,0-4.81h5.72c.1.62.17,2.59.17,3.54,1-2.33,3.3-4.08,7.15-4V65c-4.19-.07-7.15,1.54-7.15,6.6V78.1h-5.86Z"/><path class="cls-2" d="M750.35,60.37c2.53,6.84,4.12,10.68,4.77,12.87h.06c.68-2.21,2-5.64,4.73-12.87h6L758.2,78.1h-6.53l-7.62-17.73Z"/><path class="cls-2" d="M766.48,52.55h5.86V57h-5.86Zm0,7.82h5.86V78.1h-5.86Z"/><path class="cls-2" d="M794.19,72.11c-.74,3.35-3.76,6.47-9.84,6.47-7.14,0-10.28-4.3-10.28-9.38,0-4.8,3.57-9.31,10.29-9.31,7.34,0,9.49,4.58,9.71,6.54h-5.86c-.35-1-1.25-2.35-3.8-2.35-3,0-4.38,2.15-4.38,5.08s1.27,5.19,4.35,5.19c2.12,0,3.2-.73,4-2.24Z"/><path class="cls-2" d="M800.46,70.6c.15,2.14,1.77,3.81,4.55,3.81,2.21,0,3.26-.64,3.93-1.73h5.86c-1.11,3.14-3.9,5.9-9.85,5.9-7.59,0-10.33-4.82-10.33-9.32,0-5,3.51-9.37,10.28-9.37,7.22,0,10.13,4.75,10.13,9.37,0,.45,0,.77,0,1.34Zm8.62-3.44c-.11-1.35-.88-3.35-4.18-3.35-3.08,0-4.2,1.61-4.37,3.35Z"/><line class="cls-3" x1="443.31" y1="4.06" x2="443.31" y2="98.7"/></g></g></svg>