<svg xmlns="http://www.w3.org/2000/svg" viewBox="0 0 318.8 84.62"><defs><style>.cls-1{fill:#fff;}</style></defs><g id="圖層_2" data-name="圖層 2"><g id="圖層_1-2" data-name="圖層 1"><path class="cls-1" d="M187.21,65.9a24,24,0,1,1,24-24A24.06,24.06,0,0,1,187.21,65.9Zm0-37.42a13.4,13.4,0,1,0,13.4,13.39A13.41,13.41,0,0,0,187.21,28.48Z"/><path class="cls-1" d="M161.41,41.87V18H150.77v3.93a24,24,0,1,0-.06,39.93,13.39,13.39,0,0,1-26.1,2.76l-10.15,3.2a24,24,0,0,0,47-7.24h-9A24,24,0,0,0,161.41,41.87Zm-24,13.39a13.39,13.39,0,1,1,13.39-13.39A13.4,13.4,0,0,1,137.38,55.26Z"/><path class="cls-1" d="M281.52,17.84a23.9,23.9,0,0,0-13.39,4.09V18H257.49V82.83h10.64v-21a24,24,0,1,0,13.39-44Zm0,37.42a13.39,13.39,0,1,1,13.39-13.39A13.4,13.4,0,0,1,281.52,55.26Z"/><rect class="cls-1" x="308.16" width="10.64" height="64.37"/><path class="cls-1" d="M234.7,67.48c-12.79,0-21.72-7.41-22.27-16.27H225c.46,3.62,4.49,6.81,9.64,6.81s8.36-1.93,8.48-4.19c.39-7.48-29.18-5.34-29.1-21.72,0-7.91,7.86-14.77,20.46-14.77,12.33,0,19.34,6.73,20.08,16.19H243.08c-.37-3.7-4-6.64-9-6.64-4.78,0-8.46,2.3-8.46,5.05,0,8.69,28.91,4.43,28.91,21.89C254.52,60.6,247.12,67.48,234.7,67.48Z"/><path class="cls-1" d="M87.8,62.81,75.71,55.76A70,70,0,0,1,99.48,31.44l7.32,11.94A55.93,55.93,0,0,0,87.8,62.81Z"/><path class="cls-1" d="M65,73.55l-13.6-3.3A87.2,87.2,0,0,1,82.71,22.06l8.57,11.07A73.19,73.19,0,0,0,65,73.55Z"/><path class="cls-1" d="M50.08,63,36.76,58.67A104.56,104.56,0,0,1,64.84,14.6l9.55,10.23A90.54,90.54,0,0,0,50.08,63Z"/><path class="cls-1" d="M28.68,83.36l-14-1a121.39,121.39,0,0,1,16.39-53l12.07,7.09A107.38,107.38,0,0,0,28.68,83.36Z"/><path class="cls-1" d="M13.71,65.52,0,62.69A138,138,0,0,1,11.7,28.91l12.52,6.26A124.64,124.64,0,0,0,13.71,65.52Z"/></g></g></svg>