<?xml version="1.0" encoding="UTF-8"?>
<svg width="500" height="400" viewBox="0 0 500 400" fill="none" xmlns="http://www.w3.org/2000/svg">
  <!-- Background -->
  <rect width="500" height="400" fill="#F0F9FF"/>
  
  <!-- Decorative elements -->
  <circle cx="250" cy="200" r="150" fill="#E0F2FE" stroke="#0EA5E9" stroke-width="2"/>
  <circle cx="250" cy="200" r="100" fill="#BAE6FD" stroke="#0EA5E9" stroke-width="2"/>
  
  <!-- Stylized person figure -->
  <path d="M250 140 C270 140, 285 160, 285 185 C285 210, 270 230, 250 230 C230 230, 215 210, 215 185 C215 160, 230 140, 250 140" fill="#0EA5E9"/>
  <path d="M250 240 L250 300 M230 270 L270 270 M235 320 L265 320" stroke="#0EA5E9" stroke-width="4" stroke-linecap="round"/>
  
  <!-- Abstract wave patterns -->
  <path d="M50 300 Q125 250 200 300 Q275 350 350 300 Q425 250 500 300" stroke="#BAE6FD" stroke-width="3" fill="none"/>
  <path d="M0 320 Q75 270 150 320 Q225 370 300 320 Q375 270 450 320" stroke="#7DD3FC" stroke-width="2" fill="none"/>
</svg> 