<svg xmlns="http://www.w3.org/2000/svg" viewBox="0 0 6415.63 6708.97"><defs><style>.cls-1{fill:#fff;}</style></defs><g id="圖層_2" data-name="圖層 2"><g id="圖層_1-2" data-name="圖層 1"><path class="cls-1" d="M6413,4669.25c-272.58-169.22-594.74-296.41-906.29-419.4-204.63-80.79-416.23-164.33-605.34-257.2-101.7-50-189.51-98.77-268.44-149.26-88.47-56.59-163.76-113.9-230.18-175.21-71.21-65.73-131.86-136.49-180.26-210.3a974.94,974.94,0,0,1-118.63-254.47c-28.51-95-43.75-198.47-45.3-307.55-1.61-114.16,11.71-238.5,39.59-369.57,68.17-320.45,153.69-631.95,236.4-933.2C4430.82,1242.41,4521.76,911.18,4559,649c41.1-289.5,13.32-468.58-87.41-563.57C4356.72-22.83,4142.3-21.75,3816,88.76l-1.6-4.74C3899,55.38,3977.18,33.8,4046.76,19.9,4115,6.28,4177.16-.42,4231.59,0c53.23.42,100.83,7.67,141.45,21.54,39.59,13.53,73.89,33.8,101.94,60.26,27.24,25.68,49.52,58.08,66.22,96.29,16,36.65,27.47,80,34,128.78,12.23,90.81,8.53,203-11.32,342.84-37.26,262.46-128.24,593.85-224.56,944.69-82.69,301.17-168.19,612.6-236.33,932.91-104,488.94-7.7,850.28,303.11,1137.18,275.36,254.18,677.08,412.78,1102.39,580.69,311.76,123.07,634.13,250.34,907.1,419.8Z"/><path class="cls-1" d="M6343.08,4687.59c-274.82-172.09-593.63-302-901.95-427.58-211.51-86.17-411.29-167.56-597.08-261.25-99.87-50.36-186-99.43-263.26-150-86.55-56.65-160.1-113.87-224.85-174.93-69.36-65.41-128.31-135.68-175.19-208.85a963.19,963.19,0,0,1-114.23-251.69c-27.17-93.77-41.29-195.83-42-303.33-.73-112.4,13.2-234.78,41.39-363.73,66.1-302.38,147.73-597.67,226.67-883.23C4390,1310.81,4481.9,978.17,4519.45,712.6c41.54-293.77,12.85-477.19-90.3-577.23C4311.63,21.39,4093,16,3760.8,118.85l-1.46-4.72c334.09-103.44,554.32-97.66,673.25,17.7,27.87,27,50.68,60.76,67.8,100.25,16.42,37.87,28.19,82.41,35,132.38,12.63,92.94,9,207-11,348.83-37.6,265.89-129.59,598.68-227,951-78.92,285.5-160.53,580.71-226.61,883-105.2,481.25-13.5,838.08,288.59,1123,268.36,253.06,664.38,414.4,1083.66,585.22,308.51,125.68,627.53,255.65,902.71,428Z"/><path class="cls-1" d="M6273.16,4706.16c-276.72-174.74-591.88-307.2-896.67-435.29C5167.41,4183,4969.93,4100,4787.33,4005.46c-98.1-50.78-182.57-100.11-258.25-150.8-84.69-56.73-156.55-113.87-219.67-174.69-67.57-65.11-124.85-134.9-170.25-207.44a951.29,951.29,0,0,1-109.93-249c-25.84-92.56-38.88-193.22-38.73-299.17.15-110.69,14.69-231.14,43.2-358,64-284.69,141.77-563.92,217-833.95,98.42-353.28,191.39-687,229.34-955.76,20.2-143.13,23.74-258.69,10.82-353.27C4476.6,319,4442.68,241.38,4387.14,186,4267,66.07,4044,54,3705.56,149.17l-1.32-4.69c340.31-95.66,564.81-83.22,686.34,38,28.46,28.4,51.78,63.48,69.29,104.26,16.78,39.09,28.84,84.83,35.82,136,13,95,9.44,211-10.83,354.62-38,269.1-131,602.93-229.47,956.37-75.21,270-153,549.15-216.94,833.72-106.45,473.73-19.27,826.13,274.34,1109,261.54,252,652.1,416.13,1065.59,589.91,305,128.18,620.32,260.71,897.39,435.67Z"/><path class="cls-1" d="M6203.25,4725c-278.28-177.16-589.47-312-890.41-442.48-408.39-177-794.13-344.22-1049.7-595.81C4126.26,3551.94,4037.56,3404,3992,3234.31c-24.55-91.39-36.5-190.67-35.52-295.11,1-109,16.17-227.59,45-352.43,61.77-267.38,135.78-530.72,207.36-785.39,99.5-354,193.48-688.4,231.87-960.17,42.6-301.63,12.35-493.53-95.19-603.92-122.79-126-350.19-144.86-695.2-57.54l-1.18-4.67C3996,87.31,4224.87,106.56,4349,233.93c29,29.79,52.8,66.22,70.67,108.29,17.13,40.32,29.44,87.25,36.59,139.49,13.29,97.09,9.77,214.9-10.75,360.17-38.43,272.09-132.45,606.63-232,960.8-71.57,254.62-145.57,517.9-207.31,785.17-107.76,466.39-25,814.47,260.35,1095.42,254.92,251,640.27,418,1048.23,594.82,301.12,130.52,612.48,265.48,891.09,442.84Z"/><path class="cls-1" d="M6133.34,4744.09C5853.9,4564.79,5547,4427.65,5250.24,4295c-403.16-180.17-784-350.34-1033.09-601C4083.87,3560,3998,3413.26,3954.77,3245.56c-23.29-90.23-34.17-188.18-32.36-291.14,1.89-107.36,17.65-224.1,46.85-347,59.5-250.43,129.78-498,197.75-737.53,202.18-712.35,376.79-1327.57,137.3-1580.52C4179,157,3947,131.21,3595.08,210.59l-1-4.63c353.65-79.78,587.11-53.55,713.72,80.18,29.53,31.19,53.73,69,71.93,112.34,17.43,41.53,30,89.64,37.26,143,13.54,99.1,10,218.65-10.78,365.49-38.93,274.86-134,609.73-234.6,964.26-67.95,239.43-138.22,487-197.69,737.32-109.12,459.24-30.75,803.11,246.64,1082.16,248.51,250,628.92,420,1031.66,600,296.94,132.7,604,269.92,883.72,449.41Z"/><path class="cls-1" d="M6063.43,4763.49c-280.16-181.14-582.39-320.35-874.66-455C4387,3939.22,3694.61,3620.29,3937,2628.43c57.15-233.83,123.73-465.92,188.13-690.37,101.66-354.35,197.69-689,237.13-966.13,43.92-308.53,12.54-508.58-98.76-629.57-127.89-139-364.61-171.93-723.69-100.62l-.92-4.6c360.82-71.65,599-38.27,728.06,102.05,30,32.61,54.58,71.77,73.06,116.41,17.71,42.75,30.43,92,37.84,146.45,13.74,101.06,10.16,222.26-11,370.55-39.49,277.4-135.56,612.25-237.27,966.76-64.38,224.4-131,456.45-188.08,690.18-110.55,452.28-36.45,792.05,233.19,1069.26,242.32,249.12,618.11,422.21,1015.95,605.46,292.42,134.69,594.81,274,875.24,455.3Z"/><path class="cls-1" d="M5993.51,4783.23c-280.37-182.65-577.58-323.71-865-460.12-200.84-95.32-390.54-185.36-561.71-283.64-91.74-52.68-170.3-103.21-240.15-154.49-77.91-57.18-143.55-114.15-200.67-174.17-126.43-132.83-206.76-277.11-245.56-441.08-20.82-88-29.62-183.39-26.16-283.51,3.6-104.19,20.62-217.4,50.57-336.48,54.72-217.57,117.64-434.31,178.49-643.92,102.76-354,199.82-688.27,239.89-967.65,44.69-311.62,12.92-515.59-100-641.93-130.37-145.88-372-186.12-738.6-123l-.78-4.55c368.33-63.39,611.31-22.66,742.83,124.5,30.42,34,55.34,74.57,74.07,120.47,17.94,44,30.82,94.37,38.3,149.85,13.89,103,10.21,225.74-11.25,375.34-40.11,279.71-137.22,614.18-240,968.29-60.84,209.57-123.75,426.26-178.45,643.76-112.05,445.53-42.14,781.32,220,1056.75,236.36,248.33,607.86,424.64,1001.17,611.31,287.56,136.48,584.91,277.61,865.55,460.42Z"/><path class="cls-1" d="M5923.6,4803.33c-280-183.76-571.85-326.42-854.06-464.38-199.24-97.41-387.43-189.42-556.15-288.78-189.53-111.63-327-216.43-432.59-329.81-123.21-132.29-200.91-275.44-237.54-437.63-19.63-86.94-27.41-181.1-23.13-279.86,4.45-102.67,22.11-214.18,52.47-331.46,52.2-201.67,111.49-403.24,168.82-598.18,103.87-353.17,202-686.76,242.75-968.21,45.54-314.43,13.5-522.22-100.83-653.93-132.8-153-379.42-200.75-754-146l-.66-4.52c376.2-54.94,624.17-6.67,758.06,147.57,30.79,35.47,56,77.37,74.95,124.54,18.13,45.13,31.14,96.67,38.66,153.18,14,104.8,10.14,229-11.71,379.85-40.81,281.77-139,615.51-242.88,968.85-57.32,194.9-116.6,396.44-168.79,598-113.64,439-47.83,771,207.13,1044.69,230.64,247.63,598.23,427.34,987.41,617.6,282.33,138,574.27,280.75,854.55,464.66Z"/><path class="cls-1" d="M5853.69,4823.82c-279.09-184.42-565.1-328.4-841.69-467.64-197.88-99.62-384.79-193.71-551.23-294.24-186.71-112.77-321.71-218-424.86-331.17-120.12-131.78-195.28-273.86-229.79-434.36-18.46-85.91-25.24-178.89-20.14-276.34,5.3-101.18,23.6-211.06,54.4-326.59,49.6-186.1,105.26-372.7,159.09-553.16,105-352,204.18-684.53,245.72-967.79,46.49-317,14.31-528.45-101.25-665.54-135.16-160.32-387-215.84-769.79-169.71l-.54-4.47c99.58-12,191.66-17.12,273.7-15.24,80,1.84,153,10.41,216.88,25.47,62.14,14.65,117.68,35.9,165.07,63.18,45.9,26.42,85.65,59.35,118.12,97.87,31.11,36.91,56.57,80.17,75.68,128.58,18.28,46.31,31.37,98.94,38.91,156.44,14,106.58,9.94,232.21-12.33,384.08-41.59,283.58-140.81,616.23-245.86,968.42-53.82,180.43-109.47,367-159.06,553-115.33,432.7-53.52,761,194.52,1033.1,225.19,247.06,572.56,421.93,974.79,624.42,276.7,139.3,562.83,283.34,842.14,467.91Z"/><path class="cls-1" d="M5783.78,4844.76C5506.34,4660.16,5226.57,4515.19,4956,4375c-196.79-102-382.66-198.29-547.05-300.08-184.12-114-316.83-219.74-417.65-332.76-117.18-131.36-189.91-272.44-222.33-431.32-17.34-84.92-23.12-176.75-17.2-272.94,6.15-99.75,25.11-208,56.37-321.89,46.91-170.87,99-342.7,149.28-508.87,106.15-350.51,206.42-681.57,248.82-966.38C4253.78,921.51,4221.61,706.48,4105,564,3967.57,396.09,3710.43,332.61,3318.92,370l-.42-4.42c101.9-9.72,196.1-12.57,280-8.48,81.78,4,156.32,14.68,221.55,31.81,63.41,16.64,120,39.89,168.3,69.08,46.73,28.26,87.13,63,120.09,103.28,31.38,38.33,57,82.94,76.27,132.58,18.38,47.46,31.51,101.16,39,159.6,13.93,108.3,9.64,235.21-13.1,388-42.45,285.13-142.76,616.35-249,967-50.32,166.15-102.35,338-149.24,508.76-117.14,426.63-59.24,751.39,182.19,1022,220,246.61,564.52,425.14,963.43,631.85,270.66,140.25,550.54,285.29,828.18,470Z"/><path class="cls-1" d="M5713.87,4866.18c-275-184.19-548.06-329.79-812.13-470.59-196-104.5-381.11-203.21-543.69-306.37-181.78-115.36-312.39-221.69-411-334.64-114.4-131-184.79-271.16-215.18-428.51-16.22-84-21-174.71-14.28-269.7,7-98.36,26.63-205.14,58.38-317.37,44.12-156,92.54-313.23,139.36-465.32,107.34-348.6,208.72-677.87,252.06-964C4216,988.5,4184,770.06,4066.59,622.27,3946.65,471.3,3736,397.1,3425.16,397.1q-76.66,0-161.46,6l-.31-4.36c104.33-7.37,200.75-7.89,286.6-1.54,83.61,6.19,159.78,19.09,226.4,38.35,64.69,18.7,122.42,44,171.58,75.15,47.55,30.15,88.61,66.77,122,108.85,31.6,39.77,57.4,85.7,76.7,136.54,18.45,48.59,31.58,103.32,39,162.68,13.8,109.93,9.2,238-14.06,391.59-43.4,286.43-144.82,615.85-252.2,964.61-46.82,152.07-95.24,309.31-139.34,465.22-119.06,420.83-65,742.25,170.17,1011.51,215.13,246.35,557.29,428.79,953.48,640,264.17,140.85,537.33,286.5,812.5,470.82Z"/><path class="cls-1" d="M5644,4888.15c-271.67-183.15-549.48-335.5-794.59-469.92-394.51-216.35-735.22-403.19-946.33-650-111.79-130.74-179.95-270.08-208.37-426-15.14-83.07-19-172.77-11.4-266.61,7.83-97,28.17-202.37,60.45-313.06,41.22-141.38,86-284.29,129.33-422.5,108.54-346.33,211.06-673.45,255.44-960.57,49.91-322.89,18.18-544.57-99.83-697.65-141.78-183.92-410.07-264.07-820.19-245l-.2-4.31c106.88-5,205.63-3.07,293.5,5.62,85.51,8.46,163.37,23.63,231.41,45.08,66,20.82,124.88,48.21,174.94,81.41,48.38,32.09,90.08,70.64,124,114.58,31.74,41.19,57.64,88.44,77,140.45,18.46,49.69,31.55,105.42,38.91,165.65,13.61,111.47,8.64,240.63-15.2,394.85-44.43,287.44-147,614.71-255.59,961.2-43.31,138.19-88.09,281.08-129.3,422.41-121.11,415.33-70.76,733.6,158.46,1001.64,210.59,246.26,551,432.93,945.12,649.07,245.19,134.46,523.1,286.86,794.93,470.12Z"/><path class="cls-1" d="M5574.05,4910.72c-267.33-181.37-537-333.39-774.92-467.52-393.23-221.68-732.83-413.13-939.74-660.11C3750,3652.52,3684,3513.91,3657.48,3359.33c-14.09-82.22-17-170.94-8.56-263.69,8.68-95.78,29.73-199.72,62.58-309,38.22-127.11,79.36-255.89,119.14-380.43,216.19-676.82,420.39-1316.09,160.6-1663.49-136.86-183-391.82-272.34-778.23-272.34-19.6,0-39.48.22-59.76.68l-.09-4.25c109.55-2.47,210.73,1.9,300.7,13,87.49,10.8,167.1,28.3,236.6,52,67.39,23,127.39,52.55,178.35,87.85,49.2,34.09,91.54,74.63,125.83,120.49,261.11,349.15,56.58,989.44-159.95,1667.32-39.78,124.53-80.91,253.29-119.12,380.37C3592.25,3198,3639,3513.38,3862.65,3780.36c206.41,246.39,545.7,437.66,938.57,659.14,238,134.16,507.74,286.23,775.21,467.7Z"/><path class="cls-1" d="M5504.14,4934c-261.86-178.76-522.71-329.84-752.85-463.14C4555.4,4357.37,4370.36,4250.2,4211.48,4142c-176.7-120.37-302.34-229.21-395.39-342.53-107.18-130.53-171.24-268.53-195.85-421.9-13.06-81.42-15-169.23-5.75-261,9.53-94.57,31.33-197.21,64.79-305.07,35.1-113.17,72.56-228.05,108.77-339.14,111.06-340.66,216-662.43,262.71-950.75,52.75-325.3,22.11-552.94-96.42-716.4C3808.62,604.28,3528.52,506.43,3098,506.08v-4.19c112.37.09,216.08,7,308.24,20.64,89.55,13.21,171,33.12,242,59.18,68.79,25.24,130,57,181.82,94.5,50,36.14,93,78.72,127.67,126.55,31.88,44,57.79,93.76,77,148,18.35,51.8,31.21,109.4,38.24,171.22,13,114.3,7.07,245.23-18.07,400.29-46.81,288.64-151.76,610.56-262.86,951.38-36.22,111.08-73.66,225.94-108.76,339.08-125.71,405.23-82.48,717.91,136,984,202.63,246.78,541.59,443.1,934.06,670.42,230.2,133.33,491.12,284.46,753.11,463.3Z"/><path class="cls-1" d="M5434.23,4957.56c-255.09-175.18-506.35-324.61-728-456.44-196.84-117.06-382.77-227.63-541.14-337.95-175.79-122.46-300.31-232.46-391.89-346.16C3668,3686.39,3605.74,3548.86,3583,3396.57c-24.68-164.93-3.71-348.07,64.11-559.9,31.87-99.53,65.59-200.74,98.2-298.62,112.38-337.27,218.52-655.83,266.62-944.31,54.37-326,24.52-556.35-93.93-724.86C3770.46,659,3484.2,551.93,3042.81,541.4l.1-4.13C3158.22,540,3264.58,549.62,3359,565.8c91.69,15.71,175,38.11,247.52,66.58,70.22,27.55,132.58,61.65,185.34,101.34,50.85,38.26,94.41,82.93,129.45,132.78,31.85,45.32,57.68,96.35,76.76,151.68,18.21,52.78,30.88,111.26,37.68,173.8,12.55,115.55,6.07,247.19-19.82,402.44-48.15,288.8-154.34,607.51-266.77,944.93-32.61,97.87-66.33,199.07-98.19,298.58-130,406.19-91.38,707.35,125.39,976.5,199.3,247.46,538.81,449.36,931.92,683.14,221.74,131.87,473.07,281.33,728.26,456.59Z"/><path class="cls-1" d="M5364.32,4981.15c-246.83-170.51-487.63-317.43-700.09-447.06C4465.82,4413,4278.41,4298.68,4120.1,4186c-175.37-124.84-299.13-236.19-389.46-350.44-103.49-130.89-164-268.1-185-419.45-22.7-163.35,0-344.65,69.25-554.26,28.51-86.22,58.45-174,87.4-258.91,113.73-333.5,221.16-648.5,270.73-936.84,56.11-326.41,27.23-559.21-90.88-732.66-149.12-219-441.71-335.66-894.49-356.72l.19-4.05c118.39,5.5,227.51,17.85,324.32,36.7,93.93,18.29,179.14,43.26,253.27,74.22,71.69,29.93,135.25,66.4,188.91,108.38,51.67,40.43,95.8,87.26,131.16,139.19,31.76,46.64,57.44,98.86,76.33,155.2,18,53.74,30.46,113,37,176.23,12,116.71,4.9,248.92-21.79,404.19-22.27,129.57-59,278.29-112.32,454.64-47.61,157.47-104,322.88-158.56,482.83-29,84.89-58.89,172.68-87.39,258.88-132.9,402-97.39,701.13,115.13,969.92,196.49,248.5,521.3,446.68,932.52,697.58,212.5,129.66,453.35,276.61,700.28,447.19Z"/><path class="cls-1" d="M5294.41,5004.74c-236.88-164.57-466.18-308-668.48-434.52-200.73-125.55-390.33-244.13-549.12-359.53-175.52-127.55-298.88-240.51-388.24-355.49-102.08-131.36-161.1-268.42-180.44-419-20.78-161.92,3.58-341.55,74.49-549.18,25-73.21,51.1-147.83,76.33-220,110.07-314.87,223.9-640.46,275.05-928.35,57.2-322,28.66-563.93-87.24-739.73C3696.18,770.54,3397.08,644,2932.39,612l.27-4c121.63,8.36,233.64,23.57,332.92,45.19,96.23,20.95,183.44,48.58,259.2,82.1,73.19,32.4,138,71.31,192.52,115.65,52.48,42.65,97.16,91.69,132.8,145.74,31.6,47.93,57.07,101.3,75.71,158.61,17.78,54.64,29.92,114.7,36.11,178.5,11.42,117.74,3.58,250.39-24,405.52-23,129.33-60.5,277.22-114.69,452.09-48.36,156-105.38,319.14-160.53,476.88-25.22,72.16-51.31,146.78-76.31,220-136,398.24-103.54,695.69,105.32,964.44,194.26,250,521.73,454.78,936.32,714.09,202.34,126.56,431.68,270,668.64,434.63Z"/><path class="cls-1" d="M5224.5,5028.34c-225-157.19-441.53-295.89-632.59-418.26-834.57-534.55-1338.32-857.2-1041.5-1697.91,21.36-60.51,43.52-122.24,64.94-181.93,111.47-310.56,226.74-631.7,279.6-918.82,59.22-321.64,32.07-565.68-83-746-151.86-238-457.62-374.77-934.77-418l.35-3.92c125,11.34,240,29.5,341.89,54,98.63,23.72,187.9,54.09,265.32,90.28,74.74,34.92,140.74,76.34,196.18,123.11,53.27,44.94,98.48,96.23,134.35,152.46,31.37,49.17,56.57,103.64,74.9,161.87,17.47,55.49,29.27,116.25,35.08,180.58,10.72,118.66,2.08,251.6-26.43,406.42-52.91,287.44-168.24,608.73-279.76,919.44-21.43,59.69-43.58,121.41-64.94,181.91-139.45,395-109.83,691.12,96,960.23,192.69,251.9,524.19,464.23,943.89,733.05,191.09,122.4,407.68,261.12,632.72,418.35Z"/><path class="cls-1" d="M5154.59,5051.93c-210.83-148.11-413.13-280.64-591.62-397.58-427.2-279.88-764.63-500.94-957-755.92-100.34-133-157-270.45-173.15-420.15-17.24-159.55,10.67-336.5,85.32-541,17.57-48.12,35.7-97.22,53.23-144.71,112.92-305.9,229.68-622.22,284.39-908.24,61.38-321,35.82-566.79-78.15-751.56C3624.74,884.92,3312.14,737.67,2822,682.66l.43-3.85C2951,693.24,3069.14,714.48,3173.66,742c101.12,26.57,192.52,59.79,271.65,98.71,76.3,37.54,143.54,81.55,199.85,130.8,54.06,47.28,99.75,100.88,135.8,159.33a703.86,703.86,0,0,1,73.89,165c17.11,56.28,28.51,117.67,33.89,182.47,9.92,119.45.39,252.54-29.13,406.87-54.76,286.33-171.58,602.8-284.56,908.85-17.53,47.49-35.65,96.59-53.22,144.7-143.22,392.24-116.31,687.52,87.28,957.44,191.92,254.44,529.1,475.34,956,755,178.51,117,380.84,249.51,591.73,397.65Z"/><path class="cls-1" d="M5084.68,5075.52c-194.08-137.06-380.28-261.66-544.56-371.6C3658.92,4114.22,3173.51,3789.38,3486,2962.5c13.62-36,27.61-72.82,41.13-108.38,114.42-300.89,232.74-612,289.43-896.61,63.72-319.89,40-567.25-72.63-756.22-153.74-258-473.37-416.1-977.14-483.32l.51-3.78c132.28,17.65,253.75,42.1,361,72.66,103.71,29.54,197.3,65.69,278.17,107.45,77.91,40.23,146.39,86.89,203.57,138.7,54.82,49.67,100.95,105.64,137.12,166.34a726.61,726.61,0,0,1,72.67,167.91c16.68,57,27.62,119,32.52,184.17,9,120.09-1.48,253.17-32.09,406.84-56.75,284.9-175.13,596.18-289.61,897.22-13.52,35.56-27.5,72.33-41.12,108.37-147.41,390.1-123,685,79.22,956.3,192.06,257.67,536.9,488.44,973.48,780.6,164.3,109.95,350.52,234.57,544.64,371.65Z"/><path class="cls-1" d="M5014.77,5099.11c-174.28-123.72-334.83-233.29-490.08-339.24-230.49-157.3-429.54-293.15-597.82-424.24-184.21-143.5-311.53-266.56-400.69-387.28-49.92-67.59-87.77-134-115.72-203.08a764.07,764.07,0,0,1-53.5-221.73c-14.13-158,17.53-333.31,96.79-535.87q14.25-36.4,28.61-73c234-596.33,476.08-1213,228.28-1643.9-154.29-268.32-481.09-437.61-999.08-517.53l.57-3.7c136.18,21,261.08,48.79,371.26,82.56,106.39,32.62,202.25,71.81,284.9,116.49,79.53,43,149.27,92.4,207.29,146.82,55.55,52.12,102.09,110.5,138.32,173.49,248.69,432.49,6.33,1050-228.05,1647.14q-14.34,36.54-28.6,73c-152.08,388.63-129.89,683.81,71.95,957.09,193.33,261.76,548.25,504,997.6,810.65,155.27,106,315.83,215.54,490.14,339.28Z"/><path class="cls-1" d="M4944.86,5122.7c-150.94-107.69-291-205-426.47-299.11-240-166.72-447.26-310.7-620.7-447.56-189.32-149.38-319.61-276.32-410.05-399.49-50.52-68.82-88.64-136.19-116.55-206a756.7,756.7,0,0,1-52.4-222.95c-12.79-157.66,20.85-332.59,102.85-534.8q7.78-19.22,15.6-38.46c117.62-289.8,239.24-589.47,300.34-870.15,68.92-316.6,49.43-566.12-59.58-762.81-154.55-278.84-488.7-459.67-1021.54-552.81L2657,785c140.26,24.52,268.76,55.77,381.92,92.89,109.18,35.8,207.37,78.15,291.84,125.85,81.19,45.85,152.19,98,211,155.15,56.27,54.63,103.15,115.45,139.36,180.77a768.12,768.12,0,0,1,69.58,173.19c15.63,58.27,25.46,121.15,29.22,186.89,6.91,121-5.8,253.53-38.84,405.3-61.17,281-182.85,580.81-300.52,870.75L3425,3014.22c-159.42,393.16-139.78,680.31,65.67,960.13,195.94,266.88,545.73,509.89,1029.87,846.21C4656,4914.68,4796.05,5012,4947,5119.7Z"/><path class="cls-1" d="M4875,5146.3c-123.42-88.5-239.35-170.3-351.47-249.42-252.08-177.87-469.78-331.48-650-475.2-196.19-156.42-330.65-288.06-423.12-414.28-51.55-70.35-90.27-138.94-118.37-209.67a749.83,749.83,0,0,1-51.78-224.83c-11.63-157.61,24.08-332.58,109.15-534.91l2.08-4.95c119.31-283.72,242.68-577.11,306.23-855.3,71.81-314.34,54.8-564.45-52-764.63-154.46-289.54-496.11-482.26-1044.48-589.2l.69-3.56c144.54,28.19,276.78,63.06,393.06,103.64,112.06,39.12,212.66,84.72,299,135.54,82.87,48.78,155.12,103.87,214.72,163.71,56.94,57.17,104.12,120.48,140.23,188.16a786.16,786.16,0,0,1,67.69,175.5c15,58.79,24.19,122,27.29,187.89,5.68,121.15-8.27,253.23-42.66,403.76-63.62,278.5-187,572-306.42,855.9l-2.08,5c-165.39,393.32-147.27,682.18,60.58,965.86,200.23,273.28,566,531.4,1072.34,888.66,112.12,79.12,228.07,160.93,351.49,249.43Z"/><path class="cls-1" d="M4805.05,5169.89c-90.93-65.51-177.88-127.68-262-187.8-535-382.51-921.6-658.88-1128.55-940.6-53.1-72.29-92.81-142.44-121.4-214.44-29.52-74.33-46.45-148.75-51.78-227.52-5.41-80,1.29-162.11,20.49-251.11s50.38-182.39,95.27-285.26c106.28-243.55,238.54-546.65,303.65-825.55,71.26-305.29,55.91-551.19-46.94-751.75-154-300.35-503.31-505.32-1067.86-626.64l.75-3.48c149,32,285.15,70.66,404.65,114.86,115,42.55,218.11,91.51,306.32,145.54,84.58,51.8,158.07,109.83,218.42,172.47,57.57,59.76,105,125.57,140.89,195.62a802.47,802.47,0,0,1,64.86,174.53c14.3,58.22,22.93,120.56,25.65,185.28,5,119.22-9.16,248.23-43.27,394.38-28.45,121.89-71.31,256.77-131,412.36-52,135.6-111.45,273.11-172.85,413.8-172.15,394.49-155.09,686,57,974.8,206.61,281.26,593,557.5,1127.76,939.82,84.09,60.12,171,122.28,262,187.8Z"/><path class="cls-1" d="M4735.14,5193.48c-52.52-38-104-75.19-153.74-111.13-287.11-207.37-535.07-386.46-736-548.51-106-85.49-193.36-161.78-267.16-233.24-80.32-77.78-144.93-150.11-197.52-221.13-55.33-74.72-96.55-146.85-126-220.49-30.33-75.79-47.52-151.42-52.56-231.21-5.09-80.68,2.37-163.48,22.81-253.13,20.34-89.26,53-182.91,99.89-286.32,215.72-475.94,484.19-1068.25,257.48-1528.77-153.19-311.18-510.26-528.71-1091.6-665l.8-3.41c153.65,36,293.84,78.6,416.67,126.54,118.13,46.1,223.71,98.54,313.82,155.85,86.3,54.89,161,115.92,222.07,181.38,58.17,62.37,105.73,130.7,141.38,203.11a816.59,816.59,0,0,1,61.75,172.68c13.56,57.37,21.63,118.54,24,181.8,4.36,116.79-9.85,242.2-43.43,383.4-61.29,257.65-176.76,522.54-299.74,793.89-182.26,402.11-166.18,688.24,55.5,987.62,215.66,291.26,628.49,589.43,1199.87,1002.12,49.76,35.95,101.22,73.12,153.74,111.14Z"/><path class="cls-1" d="M4665.23,5217.07l-20.87-15.18C4332,4974.7,4062.17,4778.48,3846,4604c-113.87-91.9-207.54-173.42-286.36-249.23-85.61-82.34-154.29-158.4-210-232.54-58.43-77.8-101.83-152.44-132.66-228.2-31.64-77.71-49.41-154.94-54.34-236.13-5-81.73,3.19-165.52,25-256.14,21.53-89.69,55.9-184,105-288.3,251.88-534.6,461.2-1050,258.56-1479.35-152-322-516.91-552.37-1115.66-704.3l.84-3.33c158.48,40.22,302.86,86.88,429.13,138.7C2986.84,1115,3095,1171,3187,1231.66c88,58,164,122.11,225.68,190.43,58.71,65,106.36,135.84,141.64,210.58,94.22,199.63,106.33,435.36,37,720.63-62.16,255.87-180.11,516.57-295.59,761.65C3104.56,3520.79,3121,3812,3352.43,4120.2c228.21,303.83,652.19,612.17,1294,1078.92l20.88,15.17Z"/><path class="cls-1" d="M4595.33,5240.67c-298.57-218.14-585-429.16-807.75-613.06-230.82-190.57-386.68-346.4-490.51-490.41-56.48-78.34-98-153.39-126.92-229.45-29.48-77.5-45.26-154.37-48.25-235s6.9-163.23,30.22-252.39c22.93-87.64,58.37-179.79,108.34-281.71,238.47-486.39,455-997.39,259.94-1429.06-150.33-332.72-523.23-576.22-1140-744.43l.88-3.26c163.5,44.59,312.22,95.51,442,151.34,124.53,53.57,235.33,113.24,329.31,177.36,89.77,61.25,166.89,128.41,229.21,199.59,59.19,67.62,106.86,141,141.66,218,89.47,198,99.75,427.81,31.43,702.46-27.76,111.59-68.6,231.72-124.85,367.25-53.63,129.21-114.29,255.62-166.56,362.23-195.82,399.4-185.29,687.7,36.32,995.09,219.88,305,636.87,620.05,1297.51,1102.71Z"/><path class="cls-1" d="M4525.42,5264.26c-284.85-209-579.77-429-807-621.72-225.57-191.26-377.37-348.68-477.74-495.41-53.63-78.4-92.54-153.46-118.95-229.47-26.72-76.91-40.06-153-40.77-232.76-.71-79.23,11.07-160.17,36-247.46,24.34-85.15,60.73-174.65,111.28-273.63,224.54-439.7,448.44-945.07,261.55-1378-148.21-343.3-529.15-600.2-1164.6-785.37l.92-3.18c168.71,49.16,321.9,104.5,455.34,164.49,127.87,57.48,241.35,120.92,337.27,188.55,91.52,64.53,169.8,134.79,232.67,208.86,59.63,70.24,107.21,146.06,141.44,225.34,84.59,195.93,92.94,419.47,25.54,683.4-60.61,237.35-173.85,475.45-287.18,697.39-199.8,391.26-196.26,675.16,12.21,979.94,202.14,295.51,591,607.79,1284,1116.33Z"/><path class="cls-1" d="M4455.51,5287.85c-375.87-277-617-465.55-806.25-630.37-220.5-192-368.25-351-465-500.43-50.8-78.45-87.1-153.52-111-229.49-24-76.3-34.87-151.71-33.29-230.52,1.55-77.78,15.23-157.1,41.8-242.51C3107.54,3371.87,3144.9,3285,3196,3189c220.83-414.74,441.52-893.44,263.38-1326.14-145.6-353.68-534.66-624.21-1189.4-827.06l1-3.11c174.1,53.94,331.92,113.88,469.09,178.16,131.29,61.53,247.49,128.83,345.38,200,93.26,67.84,172.67,141.24,236,218.17,60,72.86,107.42,151.1,141,232.56,79.58,193.33,85.93,410.34,19.4,663.45-61.34,233.38-177.44,467.36-282.92,665.45-390.75,733.86-83,1106,1258.54,2094.74Z"/><path class="cls-1" d="M4385.6,5311.45c-365.06-270.22-613.49-467.3-805.5-639-106.63-95.35-194.41-181.72-268.38-264-76.36-85-136.49-163.94-183.82-241.4-48-78.51-81.67-153.59-103-229.52-21.26-75.7-29.71-150.37-25.82-228.28,3.8-76.32,19.37-154,47.6-237.57,27.07-80.15,65.39-164.37,117.14-257.47C3396.66,2795.25,3590,2351,3429.18,1940.5c-142.47-363.77-539.69-648.15-1214.36-869.41l1-3c179.67,58.93,342.27,123.65,483.27,192.36,134.79,65.69,253.76,136.94,353.61,211.78,95,71.2,175.5,147.75,239.27,227.53,60.29,75.43,107.45,156,140.17,239.6,38.88,99.28,58.8,206.45,59.19,318.56.36,102.37-14.72,208.38-46.11,324.11-27.21,100.3-66.14,205.57-119,321.84-42.2,92.79-92.91,191.88-159.59,311.85-208.52,375.13-218.94,650.26-36,949.63,198.15,324.24,627.83,678,1256.88,1143.56Z"/><path class="cls-1" d="M4315.7,5335c-356.21-264.76-611.93-470.56-804.76-647.68-104.62-96.09-190.62-183.5-262.91-267.23-73.83-85.49-131.57-165.05-176.52-243.23-45.19-78.56-76.27-153.64-95-229.53a694.79,694.79,0,0,1-18.35-226c11.72-145.31,66.84-298.48,173.47-482,217.44-374.28,419.27-812,267.44-1220.57-138.78-373.49-544.2-671.92-1239.41-912.33l1-3c185.45,64.13,353,133.8,497.88,207.09,138.37,70,260.15,145.26,362,223.77,96.72,74.6,178.27,154.3,242.38,236.9,60.51,78,107.31,160.88,139.1,246.43,36.12,97.21,54.13,201.37,53.52,309.57-.55,97.69-16.34,202.49-46.94,311.5-62.62,223.11-179.46,439-274.25,602.16-213.28,367.11-230.69,637.85-60.1,934.48,166.29,289.12,526.51,624.38,1243.35,1157.18Z"/><path class="cls-1" d="M4245.79,5358.63c-353.56-263.86-609.05-472.42-804-656.33-102.68-96.85-186.89-185.31-257.45-270.41-71.31-86-126.66-166.18-169.21-245.06-42.41-78.62-70.89-153.71-87-229.56a688.53,688.53,0,0,1-10.87-223.81c15.93-141.74,73.82-290.76,182.2-469,213-350.31,411.6-762.9,269.57-1167-134.51-382.75-548.13-695.37-1264.51-955.71l1-2.88c191.4,69.56,364,144.38,512.91,222.37,142,74.37,266.63,153.78,370.4,236,98.43,78,181,160.84,245.35,246.22,60.65,80.44,107,165.55,137.7,253,33.36,94.92,49.45,195.87,47.81,300.06-1.47,94.3-17.56,194.79-47.82,298.68-26.9,92.36-64.6,187.78-115.27,291.71-41.36,84.85-91.92,176.18-154.57,279.21-218.34,359.08-242.73,625.42-84.2,919.32,162.26,300.79,518.56,640,1229.81,1170.8Z"/><path class="cls-1" d="M4175.89,5382.23c-347.06-260-609.81-477.56-803.27-665-199.29-193.08-334.68-363.33-413.89-520.49-39.66-78.68-65.52-153.77-79.07-229.58-13.2-73.88-14.31-146.35-3.4-221.56,20.06-138.18,80.72-283.07,190.93-456,196.19-307.83,404.38-712.55,271.71-1113.17C3209.27,1785,2787.43,1458.08,2049.28,1177l1.07-2.8c197.53,75.21,375.29,155.35,528.33,238.19,145.73,78.88,273.22,162.47,378.92,248.44,100.13,81.44,183.62,167.39,248.16,255.46,60.71,82.85,106.47,170.06,136,259.21,30.59,92.39,44.75,190,42.09,290-2.43,90.8-18.83,186.93-48.76,285.7-48.73,160.82-133,332.41-265.36,540-223.71,351-255.09,613-108.31,904.17,155,307.58,518.78,661.8,1216.27,1184.42Z"/><path class="cls-1" d="M4116.34,5426.46c-344.06-260.72-603.22-477.74-792.28-663.46-99-97.21-179.68-186.33-246.77-272.43s-118.72-166.92-157.57-246.67c-38.37-78.76-63.27-154.38-76.11-231.18-12.47-74.65-13.24-148.53-2.32-225.89,19.77-140.18,78.66-291.55,185.31-476.38,232.13-402.81,362.78-741.91,245.93-1087.59C3144.51,1844.17,2722,1509.45,1981,1199.59l1.2-2.86c198.19,82.87,376.11,168.84,528.8,255.54,146.21,83,273.85,169.26,379.37,256.36,100.46,82.92,184.11,169.29,248.62,256.7,60.94,82.58,106.86,168.89,136.49,256.54,57.2,169.19,57.35,349.11.48,550-24,84.91-58.13,173.75-104.22,271.62-37.52,79.65-82.78,165-142.43,268.48-182.3,315.91-270.22,595.05-106.79,930.55,149.05,306,506.64,659.28,1195.71,1181.44Z"/><path class="cls-1" d="M4056.8,5470.69c-345.75-265-594-475.32-781.29-661.92-97.13-96.77-176.14-185.51-241.57-271.28S2918.3,4371,2880.7,4291.05c-37.08-78.84-61-155-73.14-232.79-11.75-75.39-12.17-150.68-1.25-230.2,10.32-75.23,30.69-153.28,62.28-238.61,28.78-77.75,67.19-162.2,117.44-258.18,186.13-356.51,343.13-705.88,221.48-1060.43-61-177.78-186.91-344.79-384.9-510.57C2606.08,1579,2308.44,1403,1912.68,1222.15l1.33-2.92c199.46,91.13,377.88,183.29,530.32,273.93,147,87.42,275,176.46,380.33,264.66,100.93,84.5,184.75,171.31,249.15,258,61.15,82.33,107.15,167.77,136.72,254,29.07,84.7,43.14,170.23,43,261.49-.1,83.32-12.08,169.16-36.62,262.44-47.64,181-137.78,366.05-228.09,539-175.58,335.42-260.67,626.51-105.26,956.94,145.1,308.52,485.56,649.94,1175.14,1178.46Z"/><path class="cls-1" d="M3997.25,5514.92c-342.58-265.6-587.35-475.44-770.3-660.39-95.28-96.32-172.59-184.67-236.36-270.11s-112.56-166.1-148.9-246.22c-35.79-78.91-58.75-155.58-70.18-234.4-11-76.11-11.09-152.82-.18-234.51,19.4-145.25,73.1-304.76,174.12-517.2C3128.33,2966,3258.93,2644.52,3142,2314.74c-61.24-172.66-187.83-338.41-387-506.71-214.18-181-512-365.24-910.57-563.33l1.47-3c398.78,198.2,696.84,382.61,911.22,563.75,199.65,168.7,326.56,334.91,388,508.14,28.53,80.43,43,161.62,44.34,248.2,1.21,79.39-8.78,161.85-30.53,252.07-39,161.61-109.4,326.29-210.45,539.6C2586.64,4114.36,2680.64,4490,3999.27,5512.32Z"/><path class="cls-1" d="M3937.7,5559.16c-339.35-266.17-580.63-475.53-759.31-658.87-93.42-95.85-169-183.83-231.15-268.95s-109.48-165.69-144.57-246c-34.5-79-56.48-156.16-67.21-236-10.32-76.81-10-154.93.89-238.83C2746.54,3832.22,2766,3749,2796,3656c26.42-82.11,62.05-174.71,108.92-283.11,180.62-419.81,289.72-718.47,165.56-1032.42-64.86-164-193.83-325.61-394.29-494.11-210.13-176.63-504.55-366.06-900.08-579.14l1.62-3C2173.42,1477.44,2468,1667,2678.34,1843.79c103.38,86.9,185.83,169.84,252,253.55,64,80.88,110.82,160,143.21,241.9,58.73,148.51,68.16,302.83,29.67,485.66-36.35,172.69-113.11,358.4-195.27,549.36-171.16,395.9-242.75,688-102.21,1009.72,133.63,305.86,462.18,645.56,1134,1172.5Z"/><path class="cls-1" d="M3878.16,5603.39c-336.07-266.69-573.85-475.56-748.33-657.33-91.56-95.4-165.47-183-225.94-267.8S2797.5,4513,2763.66,4432.48c-64.6-153.7-84.39-306.46-62.29-480.74,18.85-148.65,67.58-315.53,162.93-558,171.72-439.18,266.47-727.5,134.62-1027.48-69.1-157.21-196.7-310.21-401.56-481.5-204.48-171-495.47-365.59-889.59-595l1.76-3c199.18,115.92,367.37,220,514.18,318,148.46,99.19,271.42,189.88,375.9,277.24,104,86.94,187.07,168.43,254,249.11,65.53,79,114.1,155.4,148.5,233.67,33,75,52.34,150.5,59.23,230.77,6.39,74.57,1.92,153.17-13.69,240.27-30.13,168.15-99.39,352.71-180.1,559.13-168.08,427.41-233.9,719.11-100.67,1036.11,129.76,308.73,441.94,636.63,1113.44,1169.51Z"/><path class="cls-1" d="M3818.61,5647.62c-332.71-267.17-567-475.55-737.34-655.8-89.7-94.92-161.9-182.14-220.74-266.64s-103.29-164.84-135.89-245.56c-61.85-153.2-80.36-307.84-58.25-486.65,23-186.13,89.23-388,157.34-578.41,157.38-442.87,246.58-729.19,103.67-1022.54-72-147.8-201.91-296.79-408.83-468.9-198.68-165.24-478-359.32-879.11-610.77l1.91-3c401.23,251.54,680.7,445.7,879.5,611.06,207.33,172.44,337.53,321.81,409.77,470.08,35.24,72.36,57.05,145,66.67,222.07,9,72.24,7.3,148.91-5.26,234.36-24.33,165.53-86.36,347.81-164.93,568.9-164.55,460-225.06,750.63-99.14,1062.5C2852.22,4786,3158.64,5113,3820.86,5644.81Z"/><path class="cls-1" d="M3759.06,5691.85c-329.28-267.59-560.08-475.49-726.35-654.27-174.48-187.63-284.77-349.95-347.08-510.82-59.12-152.64-76.35-309.16-54.22-492.57,21.07-174.53,75.9-365.61,151.76-598.8,148.6-460.31,225.26-734.53,72.72-1017.6-155.5-288.56-554.65-591.08-1284.74-1082.9l2.06-3.07c419.92,282.88,679.79,470.34,868.93,626.82,105.81,87.55,190.19,166.13,257.94,240.22C2769,2274.2,2821,2345.23,2859.15,2416c153.25,284.39,76.46,559.22-72.46,1020.49-160.63,493.81-216.2,782.7-97.61,1088.89,118.83,306.8,419.48,633,1072.32,1163.56Z"/><path class="cls-1" d="M3699.52,5736.08c-325.81-268-553.12-475.39-715.37-652.75C2813.66,4897,2706.4,4735.09,2646.61,4573.9a941.21,941.21,0,0,1-55.35-242.4c-7.46-79.39-5.77-163.16,5.18-256.08,20.33-172.58,71-364.88,146.16-619.21,139.73-476.76,205.05-738.33,41.78-1012.64-76.87-129.16-207.45-266-423.39-443.71-208.48-171.57-487.19-374.49-858.16-642.43l2.23-3.08c371,268,649.78,470.94,858.34,642.57,216.3,178,347.14,315.15,424.25,444.7,77.6,130.38,106.33,262.13,93.17,427.2-13.11,164.29-68.7,363.7-134.58,588.46-136.54,462-217,789.28-96.06,1115.3,115,310,400,624.53,1051.75,1160.56Z"/><path class="cls-1" d="M3640,5780.31c-322.26-268.31-546.08-475.23-704.38-651.22C2769.1,4944,2664.88,4782.56,2607.6,4621c-28.06-79.11-45.19-158.92-52.39-244-6.76-80-4.71-165.13,6.25-260.39C2583,3929.75,2637.85,3716.4,2702,3477c127.55-480,170.46-714.7,46.19-948.25-126.3-237.37-419-461.88-1002.11-909.15-98.22-75.34-199.78-153.24-311.59-239.66l2.38-3.09c111.81,86.42,213.37,164.32,311.58,239.65,283,217.07,506.53,388.52,669.56,531.17,84.52,74,151.3,138.85,204.17,198.42,55.85,62.93,98.2,122.08,129.46,180.82,61.43,115.47,83.4,235.66,71.23,389.73-11.34,143.65-51.52,314.61-117.1,561.37-133.32,497.17-209.21,818.3-94.53,1141.69,109.7,309.32,389.18,623.06,1031.19,1157.58Z"/><path class="cls-1" d="M3580.42,5824.53c-157.94-133.12-288.7-248.24-399.75-351.92-117.2-109.43-213.25-206.82-293.64-297.76-162.48-183.79-263.67-344.79-318.45-506.68-26.77-79.11-42.93-159.44-49.42-245.6-6-80.48-3.66-167.06,7.32-264.7,20.3-180.57,66.63-378.57,135-660,106.83-444.14,146.42-676.51,48.33-887.71-97.38-209.67-336.06-399.52-769.37-744.18-165.23-131.43-352.51-280.39-574.22-463.46l2.54-3.09c221.69,183,409,332,574.17,463.42,216.42,172.14,387.37,308.11,512.91,424.54,131.78,122.21,211.23,221.24,257.6,321.08,47.7,102.71,64,213,52.79,357.49-10.8,139.42-46.6,307.25-100.86,532.85-122.86,505.82-204,840-93,1168.09,104.48,308.78,378.39,621.7,1010.63,1154.6Z"/><path class="cls-1" d="M3520.87,5868.76C3366.3,5736.85,3238.5,5623,3130.18,5520.61c-114.46-108.15-208.2-204.35-286.56-294.09-158.29-181.26-257-340.4-310.64-500.82-50.38-150.68-63.77-307.44-43.42-508.28,19-187.05,65.21-397.59,123.75-664.15l7.6-34.6c93.7-431.4,122.22-655.46,43.51-842.71-79.7-189.6-271-344-618.26-624.4C1848.84,1892.25,1603.26,1694,1297.89,1425l2.71-3.08c305.3,268.9,550.84,467.13,748.14,626.42,347.78,280.78,539.36,435.45,619.46,626,39.37,93.66,52.7,196.65,43.22,333.94s-41.44,303.74-86.51,511.24l-7.6,34.6c-116.62,531-187,851.52-80.44,1170.25,102.05,305.21,369.47,614.52,986.66,1141.24Z"/><path class="cls-1" d="M3461.32,5913c-306.11-264.53-508.65-458.69-656.72-629.53-154-177.67-250.67-333.64-304.29-490.85-50.38-147.73-65.47-301.5-48.94-498.58,15.39-183.59,56.55-390.42,108.67-652.27q9.91-49.86,20.31-102.26c79.51-406.6,105-631.34,35.11-808.85-68.84-174.72-228.12-302.76-517.27-535.2-210.71-169.39-499.28-401.37-868.61-747.9l2.87-3.06c369.22,346.42,657.72,578.34,868.37,747.68,143.1,115,256.13,205.9,341.1,289.18,89.95,88.18,144.67,164.59,177.45,247.77,34.31,87.09,46.3,184.68,38.88,316.4-6.61,117.26-28,260.61-73.78,494.79q-10.36,52.43-20.31,102.27c-103.78,521.46-166.43,836.22-59.87,1148.67,101.91,298.84,362,602,959.77,1118.56Z"/><path class="cls-1" d="M3401.77,5957.22c-296.53-259.54-492.94-449.91-636.82-617.28-149.75-174.18-244.36-327-297.74-481.1-50.17-144.8-66.65-295.54-53.43-488.77,12.32-180,49-382.94,95.48-639.84,9.85-54.51,20-110.88,30.53-169.92,141.39-806,66.11-865.28-423.72-1250.61-226.51-178.2-536.74-422.25-954.81-839.62l3-3c417.89,417.2,728,661.16,954.43,839.29,122.57,96.41,219.37,172.57,293.3,245.1,78.68,77.19,127,146.3,156.64,224.08,30.94,81.17,42.94,177.51,37.76,303.21-4.77,115.94-23.44,260.19-62.41,482.35-10.48,59.05-20.68,115.42-30.53,169.93-92.5,511.49-148.33,820.22-42.22,1126.44,101.41,292.63,354.36,589.82,933.33,1096.55Z"/><path class="cls-1" d="M3342.22,6001.44C3055,5746.78,2864.5,5560.06,2724.69,5396c-145.57-170.79-238-320.64-291-471.57-49.8-141.89-67.38-289.58-57-478.89,9.67-176.38,42.44-375.21,83.93-626.94,12.44-75.5,25.31-153.57,38.62-237.48,65.47-418,69.05-618,13.66-764.12-58.68-154.84-187.72-252.63-401.52-414.66-114.35-86.65-256.65-194.5-425.48-339.69-197.85-170.14-391.8-356.61-592.95-570.06l3.21-3c454.52,482.33,780.13,729.09,1017.88,909.26,214.42,162.51,343.85,260.59,403,416.61,29.42,77.61,41.72,170.78,38.73,293.19-2.81,114.91-18.9,260.85-52.16,473.18-13.31,83.92-26.18,162-38.62,237.5-82.59,501.13-132.44,803.61-27.12,1103.67,100.59,286.58,346.49,578,907.31,1075.16Z"/><path class="cls-1" d="M3282.66,6045.67c-278.27-249.92-462.94-433.1-598.79-594-141.46-167.51-231.75-314.39-284.17-462.25-49.29-139-67.72-283.64-59.77-469,7.41-172.67,36.74-367.29,73.87-613.68,14.47-96,29.43-195.32,44.87-304.86,56.25-404.45,56.79-607.73,2-750.05-57-148.08-174.61-232.71-369.45-372.93-117.87-84.84-264.57-190.41-441.4-342.21-207.77-178.35-412.26-381.7-625.18-621.65l3.37-3c481.48,542.64,833.14,795.72,1065.84,963.19,97.9,70.46,175.22,126.1,236.51,183.68,65.93,61.93,107.42,120.92,134.51,191.3,28.85,74.92,41.9,165.67,41.08,285.59-.8,115.59-14,259.52-42.82,466.69-15.44,109.57-30.4,208.88-44.87,304.91C2344.34,4398,2299.73,4694,2403.94,4988c99.52,280.72,338.49,566.48,881.73,1054.36Z"/><path class="cls-1" d="M3223.11,6089.89c-269.54-245.27-448.6-425-580.59-582.84-137.41-164.29-225.51-308.27-277.24-453.12-48.64-136.16-67.71-277.73-61.83-459,5.48-168.9,31.79-359.19,65.11-600.1,15.3-110.66,32.64-236.08,49.55-372,48.24-393.34,45.46-600.83-9.9-740-56.77-142.73-172.64-220.89-348-339.21-240.06-161.93-602.83-406.65-1103.87-1005.9l3.53-3c500.63,598.75,863.07,843.25,1102.91,1005,90.66,61.16,162.27,109.47,220.19,161.68,62.63,56.46,102.58,111.86,129.54,179.64,29,72.84,43.08,161.76,44.4,279.83,1.28,114.81-9.59,261.76-34.21,462.47-16.91,136-34.25,261.43-49.56,372.1-66.31,479.58-106.34,769-3.5,1056.94,98.23,275,330.39,555.29,856.6,1034.11Z"/><path class="cls-1" d="M3163.56,6134.12c-261.06-240.73-434.67-417.15-562.9-572-133.43-161.17-219.3-302.32-270.24-444.2-47.89-133.34-67.4-271.85-63.27-449.08,3.85-165.11,27.53-351,57.51-586.28,16.47-129.28,35.14-275.8,52.89-438.93,41.75-389.42,35.6-595-21.91-733.36S2188,2703,2021.26,2598.9C1774.62,2444.83,1401.9,2212,888,1560.14l3.69-2.9c513.39,651.2,885.7,883.78,1132.06,1037.68,167.47,104.61,278.11,173.72,336.23,313.5,29.61,71.21,45,158.76,48.42,275.5,3.4,115.69-4.92,261.91-26.18,460.18-17.75,163.17-36.42,309.72-52.9,439-59.69,468.48-95.71,751.26,5.52,1033.19,96.76,269.47,322.23,544.39,831.91,1014.36Z"/><path class="cls-1" d="M3104,6178.34c-252.82-236.27-421.11-409.45-545.68-561.53-129.52-158.13-213.16-296.5-263.22-435.46-47-130.57-66.82-266-64.15-439.19,2.48-161.29,23.87-342.66,51-572.28,17.38-147.38,37.09-314.41,55.07-505.47,35.42-382.21,25.58-593.55-34-729.44-59.09-134.84-165.47-195.67-326.5-287.76-253-144.67-635.27-363.29-1156.82-1064.55l3.85-2.87c521,700.46,902.72,918.78,1155.35,1063.25,78.93,45.14,147.09,84.12,201.71,128.09,58.87,47.38,99.16,98.83,126.81,161.91,59.91,136.7,69.87,348.72,34.36,731.82-18,191.11-37.7,358.18-55.09,505.58-53.93,457.25-86.49,733.24,13,1009.28,95.13,264.1,314,533.8,807.65,995.11Z"/><path class="cls-1" d="M3044.45,6222.57c-244.79-231.9-407.92-401.93-528.92-551.31-125.67-155.15-207.07-290.81-256.16-426.92-46.11-127.83-66-260.25-64.57-429.35,1.35-157.46,20.77-334.29,45.35-558.16,18.11-164.93,38.63-351.87,56.29-571.6,30.13-381.57,16.78-592.42-46.1-727.8-61.25-131.85-171.05-188.7-323-267.38-259.23-134.2-651-337-1175.94-1084.89l4-2.81c524.26,746.89,915.38,949.37,1174.19,1083.35,76.8,39.76,143.12,74.1,197.29,114.77,58.64,44,99.29,93.25,127.92,154.89,32,68.8,50.37,154.59,57.95,270,7.62,116.07,3.89,266.63-11.41,460.29-17.66,219.81-38.19,406.78-56.3,571.75-49,445.91-78.52,715.07,19,985.31,93.37,258.88,305.82,523.49,783.84,976.33Z"/><path class="cls-1" d="M2984.9,6266.79c-237-227.6-395.08-394.56-512.6-541.34-121.9-152.25-201.06-285.25-249.12-418.56-45.11-125.14-65-254.54-64.55-419.58.43-153.64,18.15-325.9,40.57-544,18.71-181.93,39.92-388.14,56.68-637.29,24.92-377.18,7.49-594.92-58.27-728.06-63.87-129.3-172.53-179.64-322.93-249.33-133.71-62-300.11-139.06-499.11-299.9-107.9-87.21-216.4-192.31-322.5-312.39-122.56-138.72-247-303.14-370-488.69l4.17-2.76c524.08,790.86,924.55,976.42,1189.55,1099.2,151.33,70.12,260.67,120.78,325.31,251.66,33.07,66.94,53.76,154.72,63.26,268.34,9.79,117.19,8.33,268.39-4.48,462.27-16.77,249.23-38,455.49-56.69,637.46-44.69,434.54-71.66,696.82,23.71,961.35,91.5,253.82,297.61,513.46,760.47,958Z"/><path class="cls-1" d="M2925.34,6311c-229.38-223.38-382.57-387.34-496.7-531.62C2310.45,5630,2233.52,5499.57,2186.56,5369c-44.06-122.48-63.85-248.9-64.17-409.91-.29-149.83,16-317.49,36.55-529.76,19.24-198.36,41-423.19,56.39-702.47,20.4-378.93-.68-597.22-70.51-729.91-66.87-127.07-175.35-171.52-325.5-233-137.22-56.22-308-126.18-509.63-286.37-109.28-86.81-218.71-193.61-325.26-317.43-123-142.94-247.39-314.52-369.68-509.94l4.32-2.71c521.06,832.68,931,1000.61,1202.18,1111.73,75,30.74,139.85,57.29,194.64,92.32,59.81,38.24,102.21,83.7,133.44,143.05,70.29,133.56,91.55,352.65,71.09,732.57-15.35,279.39-37.16,504.27-56.4,702.68-41,423.14-65.8,678.54,27.33,937.46,89.54,248.91,289.44,503.7,737.55,940.07Z"/><path class="cls-1" d="M2865.79,6355.23C2026.07,5525.94,2044,5331.81,2119.25,4514.76c18.76-203.59,42.11-457,55.52-767.08,33.47-791.55-115.74-844.87-413-951.1-140.85-50.34-316.15-113-520.12-272.13-112-87.41-219.08-192.65-327.26-321.72-123.07-146.84-246.86-325.17-367.94-530l4.48-2.65C1066.6,2542.63,1486,2692.51,1763.51,2791.68c75.06,26.82,139.89,50,195.55,82.52,61,35.63,104.66,79.43,137.43,137.83,36.71,65.42,61.13,152.65,74.68,266.66,14.21,119.65,17.09,273.13,8.8,469.21-13.42,310.25-36.77,563.69-55.54,767.34-75.11,815.07-92.95,1008.73,745,1836.29Z"/><path class="cls-1" d="M2806.23,6399.45c-211.88-212.24-360-375.21-466.13-512.87-111-143.94-183.47-269.32-228.11-394.59-41.81-117.31-61.06-237.87-62.42-390.93-1.27-142.28,12.73-300.79,30.45-501.46,19.25-218.07,43.21-489.46,54.2-831.11,11.9-380-17.47-607.48-95.22-737.4-73.76-123.28-189.75-158.86-336.6-203.91-144.6-44.36-324.56-99.56-530.6-257.4-113.08-86.62-220.58-193.08-328.63-325.44-122.8-150.44-245.62-335.2-365-549.16l4.63-2.58C991.14,2603.45,1420.1,2735,1704,2822.11c75.52,23.17,140.75,43.18,197.57,73.33,62.47,33.15,107.6,75.38,142,132.92,38.75,64.75,65.15,151.89,80.72,266.39,16.45,121,21.44,276,15.24,473.91-11,341.8-35,613.27-54.21,831.4-70.12,794.11-86.78,982.78,724.68,1795.65Z"/><path class="cls-1" d="M2746.67,6443.67c-406.82-413.44-589.12-654.86-672.62-890.78-40.63-114.8-59.49-232.5-61.14-381.64-1.54-138.58,11.6-292.54,28.24-487.46,19.79-231.95,44.43-520.63,52.51-894.48,8-384.26-25.19-613.31-107.71-742.66-77.57-121.6-195.33-152-344.42-190.48-148.43-38.32-333.16-86-541-242.33-54.09-40.67-108.07-87.52-160.43-139.23-56.8-56.08-113.67-119.84-169-189.49-122.28-153.82-243.8-344.74-361.19-567.44l4.78-2.52c499.5,947.66,920.72,1056.39,1228.28,1135.78,150.24,38.78,268.91,69.41,347.63,192.8,40.9,64.11,69.34,151.26,87,266.41,18.72,122.39,25.78,279.16,21.6,479.27-8.08,374-32.73,662.8-52.53,894.83-66,773.4-81.71,957.16,704,1755.63Z"/><path class="cls-1" d="M2687.12,6487.89c-198.22-204.4-337.11-361.68-437.1-495-104.05-138.72-172.16-259.31-214.34-379.51-39.42-112.34-57.82-227.23-59.65-372.52-1.69-134.91,10.76-284.37,26.52-473.59,20.43-245.25,45.85-550.47,50.56-957.18,4.27-389.09-32.83-620-120.32-748.71-81.57-120-201.53-145.4-353.41-177.54-76.37-16.16-162.92-34.47-255.21-67.79-106-38.28-202.94-90.37-296.23-159.24-54.5-40.23-108.73-87.07-161.18-139.23-56.85-56.53-113.61-121.28-168.7-192.44-121.53-157-241.49-353.83-356.54-585l4.92-2.45C835.76,2720.89,1266.21,2812,1580.52,2878.49c303.81,64.29,487.19,103.1,478.09,931.7-4.71,406.91-30.15,712.23-50.58,957.57-62.72,753-77.62,931.93,683,1716.3Z"/><path class="cls-1" d="M2627.56,6532.11c-191.66-200.58-326.11-355.11-423.13-486.33-100.69-136.19-166.64-254.46-207.55-372.23-38.2-109.93-56.07-222.05-58-363.55-1.75-131.31,10.15-276.32,25.22-459.91,21.17-257.94,47.51-578.95,48.4-1019.15.32-205.14-10.83-365.64-34.08-490.65-21.58-116-53.94-202.6-99-264.8-85.74-118.48-208.26-139-363.38-164.91-78.52-13.14-167.52-28-261.61-58.46-108-34.93-206.19-85-300.18-153.15-54.86-39.76-109.29-86.57-161.77-139.13-56.85-56.94-113.41-122.63-168.13-195.23C565.88,2286.89,507.52,2198.7,451,2102.5c-60-102.12-119.82-216.45-177.78-339.82l5.07-2.38C756.34,2777.83,1196,2851.36,1517.07,2905.05c75.51,12.63,146.84,24.56,208.38,48,68.22,26,118.62,63.87,158.61,119.13,45.5,62.89,78.18,150.24,99.91,267.05,23.32,125.36,34.5,286.2,34.18,491.69-.89,440.43-27.24,761.56-48.42,1019.6-60.15,733-74.44,907.12,661.88,1677.69Z"/><path class="cls-1" d="M2568,6576.32c-185.28-196.81-315.41-348.66-409.52-477.87-97.39-133.72-161.21-249.74-200.84-365.12-37-107.58-54.24-217-56.07-354.78-1.7-127.76,9.78-268.39,24.31-446.42,22-270,49.48-606.08,46.12-1080.38-1.55-208.21-14.74-370.94-40.32-497.5-23.64-116.91-58.17-203.68-105.55-265.24-90.06-117-215.44-132.68-374.18-152.52-329.1-41.14-779.82-97.49-1247-1151.31l5.21-2.31c465.91,1050.88,914.79,1107,1242.54,1148,77,9.63,149.73,18.72,213.14,40,70.47,23.68,122.85,60.12,164.84,114.67,47.93,62.27,82.81,149.8,106.62,267.6,25.66,126.91,38.89,290,40.44,498.58,3.36,474.56-24.08,810.75-46.14,1080.88-56.8,695.79-72.06,882.79,640.59,1639.83Z"/><path class="cls-1" d="M2508.44,6620.54c-179.07-193.13-305-342.35-396.25-469.61-94.17-131.3-155.88-245.12-194.21-358.19-35.69-105.27-52.36-212-54-346.18-1.57-124.29,9.6-260.6,23.75-433.17,23.08-281.5,51.8-631.83,43.77-1140.82-3.39-211.5-18.62-376.6-46.56-504.73-25.72-117.93-62.44-204.88-112.28-265.81-94.51-115.53-229.44-127-385.68-140.24-82.91-7-176.89-15-274.54-39.68-111.85-28.27-212.5-74.36-307.7-140.93-55.48-38.79-110.17-85.48-162.56-138.77-56.67-57.66-112.68-125.1-166.45-200.44-57.49-80.56-114.34-172.82-169-274.2-57.92-107.51-115.15-228.66-170.12-360.09l5.35-2.24C595,2888.77,1053,2927.63,1387.42,2956c78.64,6.68,152.92,13,218.33,32.14,72.84,21.33,127.29,56.36,171.35,110.21,50.43,61.65,87.54,149.39,113.46,268.24,28,128.52,43.29,294,46.69,505.87,8,509.28-20.7,859.77-43.79,1141.39-55.5,677-70.41,859,619.23,1602.74Z"/><path class="cls-1" d="M2448.88,6664.75c-173-189.5-294.84-336.15-383.33-461.53-91-128.94-150.64-240.6-187.66-351.42-34.42-103-50.43-207.21-51.9-337.78-1.36-120.9,9.61-253,23.5-420.19,23-276.93,54.51-656.21,41.4-1200.45-5.2-215-22.47-382.55-52.79-512.29-27.81-119-66.78-206.17-119.14-266.44-99.08-114.08-237.51-120.54-397.79-128-89.29-4.17-181.62-8.48-281-30.29-113.75-25-215.57-69.07-311.29-134.84-55.74-38.3-110.51-84.92-162.79-138.56-56.52-58-112.16-126.26-165.39-202.91-56.87-81.92-112.87-176.13-166.43-280-56.77-110.1-112.6-234.53-165.95-369.85l5.49-2.16c195.09,494.85,410.46,818.23,658.42,988.62,213.26,146.54,413,155.87,589.23,164.1,161.64,7.55,301.24,14.07,402,130.05,53,61,92.39,149,120.43,269,30.41,130.13,47.73,298.1,52.94,513.49,13.12,544.55-18.4,924-41.42,1201.08C1800.66,5753,1786,5930,2453.24,6660.78Z"/><path class="cls-1" d="M2389.32,6709c-167.17-185.95-285-330.09-370.74-453.63-87.92-126.63-145.5-236.21-181.2-344.84-33.15-100.83-48.46-202.48-49.63-329.58-1.09-117.57,9.77-245.5,23.52-407.47,24.33-286.65,57.65-679.23,39.07-1259.25-7-218.64-26.32-388.78-59-520.16-29.93-120.15-71.18-207.53-126.11-267.13-103.77-112.61-245.89-114.1-410.45-115.82-91.61-1-186.34-2-287.48-20.92-115.61-21.68-218.57-63.81-314.76-128.8-56-37.81-110.8-84.35-162.93-138.32-56.33-58.31-111.58-127.39-164.21-205.34-56.2-83.23-111.3-179.35-163.76-285.67C106,2119.43,51.67,1991.79,0,1852.67l5.62-2.09c189,508.91,401.71,837.92,650.24,1005.82,214.13,144.67,418.57,146.81,598.95,148.69,166,1.74,309.26,3.24,414.8,117.75,55.62,60.36,97.33,148.6,127.51,269.75,32.83,131.79,52.2,302.35,59.22,521.41,18.59,580.38-14.75,973.16-39.09,1260-54.39,640.73-69,812.94,576.53,1531Z"/></g></g></svg>